<svg width="244" height="207" viewBox="0 0 244 207" fill="none" xmlns="http://www.w3.org/2000/svg">
<path d="M5.69373 20.8722C17.6805 31.8556 42.463 20.5878 71.184 21.1506C99.527 21.7016 115.21 35.2324 113.285 46.2752C110.439 62.6023 84.1391 54.0833 61.069 48.7574C37.745 43.3723 24.5773 47.8569 24.7485 57.2468C24.9552 68.6331 43.6676 66.7018 71.184 65.3215C98.7004 63.9412 121.328 73.5087 120.507 84.5752C120.147 89.4152 112.128 92.3181 103.619 92.8039C95.9546 92.4781 88.1308 93.1475 80.301 92.7506C63.8561 91.9212 40.1247 85.1913 39.8412 95.0551C39.4869 107.555 67.7533 106.4 78.7067 105.156C89.6601 103.918 122.839 104.889 122.698 114.552C122.52 126.43 96.9939 127.046 87.0974 128.112C77.2069 129.179 51.2316 122.265 52.8259 132.899C54.4202 143.533 78.9724 141.051 83.9206 140.168C88.8689 139.279 119.822 138.314 119.432 147.964C118.989 158.865 93.7462 159.736 82.4208 158.687C70.936 157.621 49.0291 158.865 49.7377 166.661C50.4463 174.463 68.639 174.108 82.7751 170.737C98.0036 167.105 111.301 173.154 113.427 178.272C115.192 182.526 111.65 185.909 109.884 189.807C105.308 199.908 110.947 206.922 117.306 206.999C124.286 207.088 126.943 201.756 126.506 191.033C126.093 180.938 143.465 184.475 159.721 187.84C175.977 191.205 191.701 187.485 191.524 182.171C191.347 176.857 185.277 173.758 159.986 175.346C134.548 176.939 124.741 168.877 124.741 163.029C124.741 157.182 135.517 152.751 154.772 155.938C174.028 159.131 193.467 156.294 193.815 151.862C194.169 147.431 188.513 141.228 167.669 143.177C146.819 145.126 131.649 139.001 132.157 129.528C132.6 121.287 159.012 122.792 174.205 125.808C189.398 128.823 210.602 126.519 210.425 119.072C210.248 111.625 187.544 111.359 176.065 112.069C164.604 112.774 145.236 116.868 135.044 106.21C132.021 99.7234 142.898 90.3631 182.431 93.6807C190.313 94.3442 226.599 93.4733 227.213 82.9164C227.833 72.3535 195.634 76.0858 182.431 77.7386C169.222 79.3974 133.94 80.8311 131.454 65.1082C128.774 48.1294 169.428 44.2669 191.719 49.8534C214.009 55.4458 244 55.357 244 43.7811C244 31.0796 212.787 25.7833 176.921 30.031C137.294 34.7348 108.951 7.67896 75.3823 2.43011C45.9527 -2.16708 -19.6202 -2.31518 5.69373 20.8722Z" fill="#fff"/>
</svg>
