<svg width="244" height="213" viewBox="0 0 244 213" fill="none" xmlns="http://www.w3.org/2000/svg">
<path d="M3.65767 117.067C4.67387 118.242 5.83373 119.283 6.92973 120.388C11.9841 125.977 18.491 129.131 25.248 132.14C37.5967 137.633 50.669 138.909 63.8371 139.301C71.1473 139.521 78.3618 138.008 85.1028 134.72C89.3964 132.628 93.8975 131.185 98.7976 131.861C101.266 132.204 103.916 132.44 104.762 135.358C105.698 138.593 103.533 140.706 101.431 142.492C90.7691 151.568 78.6172 154.191 65.0342 151.069C55.218 148.811 45.3592 146.617 35.4206 145.035C29.3128 144.059 23.1251 144.321 18.0707 149.235C15.2296 152.003 13.8569 155.087 15.1924 158.713C16.5597 162.43 19.6456 164.565 23.5827 165.23C26.7803 165.772 29.914 165.289 33.069 164.645C38.416 163.551 43.8003 162.655 48.9239 160.66C53.159 159.008 57.4685 160.885 58.1016 164.635C58.3836 166.313 58.0218 167.51 56.3193 168.459C51.3819 171.211 45.8434 172.096 40.6081 173.893C36.4688 175.319 32.8722 177.256 31.1271 181.643C29.0946 186.761 32.0528 193.069 37.3413 194.538C41.2572 195.622 44.9495 195.332 48.6047 193.095C54.3082 189.598 59.1019 185.28 63.2678 179.981C67.4284 174.692 72.2699 169.913 78.9364 167.762C81.0912 167.064 83.5865 166.292 85.1773 168.593C86.6457 170.712 85.7626 172.959 84.3633 174.928C82.6714 177.315 80.5911 179.38 78.3512 181.182C71.9614 186.331 66.2206 192.092 61.2513 198.631C60.3841 199.773 59.6924 201.071 59.0114 202.343C57.7186 204.762 57.0748 207.154 59.3041 209.482C61.7089 211.998 64.2254 213.805 68.0083 212.636C79.6547 209.048 87.0767 201.243 91.78 190.043C95.6 180.941 97.111 171.355 99.1541 161.851C99.8777 158.487 101.724 155.768 104.177 153.451C106.071 151.67 110.034 151.026 111.939 152.437C114.19 154.105 114.413 156.562 113.812 159.169C98.5529 200.235 145.415 196.732 130.247 159.169C129.645 156.567 129.869 154.105 132.119 152.437C134.019 151.026 137.988 151.67 139.882 153.451C142.34 155.768 144.186 158.487 144.904 161.851C146.948 171.355 148.458 180.941 152.279 190.043C156.977 201.248 164.404 209.048 176.05 212.636C179.833 213.8 182.35 211.992 184.754 209.482C186.978 207.154 186.335 204.762 185.042 202.343C184.361 201.066 183.669 199.773 182.802 198.631C177.833 192.092 172.087 186.331 165.702 181.182C163.462 179.38 161.382 177.315 159.69 174.928C158.291 172.959 157.413 170.712 158.876 168.593C160.467 166.292 162.967 167.07 165.117 167.762C171.783 169.913 176.625 174.692 180.785 179.981C184.951 185.28 189.745 189.598 195.449 193.095C199.104 195.337 202.796 195.622 206.712 194.538C212.006 193.069 214.959 186.761 212.926 181.643C211.186 177.256 207.584 175.319 203.445 173.893C198.21 172.09 192.671 171.211 187.734 168.459C186.031 167.51 185.67 166.313 185.952 164.635C186.585 160.891 190.894 159.008 195.129 160.66C200.253 162.661 205.637 163.551 210.984 164.645C214.139 165.289 217.273 165.772 220.471 165.23C224.408 164.565 227.493 162.43 228.861 158.713C230.196 155.087 228.824 152.003 225.982 149.235C220.933 144.321 214.746 144.059 208.633 145.035C198.694 146.623 188.841 148.811 179.019 151.069C165.436 154.196 153.284 151.568 142.622 142.492C140.52 140.701 138.355 138.593 139.291 135.358C140.137 132.44 142.787 132.204 145.256 131.861C150.156 131.185 154.657 132.628 158.95 134.72C165.691 138.008 172.911 139.515 180.216 139.301C193.384 138.909 206.451 137.627 218.805 132.14C225.562 129.136 232.074 125.977 237.123 120.388C238.219 119.283 239.379 118.242 240.396 117.067C245.338 111.36 245.211 107.123 239.933 102.644C237.943 100.954 235.448 100.584 232.974 100.579C224.753 100.568 218.124 104.956 212.149 109.697C198.875 120.232 184.244 125.907 167.298 124.502C162.669 124.116 157.865 123.509 154.284 119.653C152.364 117.588 152.582 115.861 154.221 113.951C157.088 110.615 160.781 109.204 165.016 109.955C169.948 110.829 174.832 110.625 179.78 110.32C192.309 109.542 202.902 104.757 211.234 95.2202C214.714 91.2348 217.752 86.9115 219.364 81.7837C221.221 75.8673 219.928 71.6083 215.464 68.2559C212.538 66.0567 206.457 66.0728 202.892 68.7386C200.013 70.8896 197.486 73.5179 195.374 76.5163C191.926 81.4082 189.16 86.8204 184.76 90.9881C182.451 93.1766 179.54 94.5015 176.561 93.0961C173.369 91.5942 173.911 88.2793 174.14 85.356C174.156 85.1522 174.252 84.9537 174.284 84.7499C175.039 80.1852 177.849 76.645 180.131 72.8474C183.802 66.7272 187.601 60.6713 189.777 53.7948C190.963 50.0454 189.33 44.7298 186.526 42.7559C184.286 41.1789 179.642 41.5758 176.976 43.818C175.577 44.998 174.502 46.5643 173.257 47.9321C167.101 54.7067 163.733 62.8384 161.728 71.6727C160.211 78.3615 160.972 85.1254 160.999 91.8571C161.009 94.9842 159.999 97.5267 158.339 99.9405C156.232 102.998 152.316 102.553 150.64 99.2271C149.044 96.0624 149.081 92.6992 149.778 89.4862C151.592 81.0863 154.151 72.8742 156.716 64.6728C158.817 57.9518 161.494 51.3971 162.531 44.3758C163.35 38.8402 164.563 33.2886 164.643 27.7316C164.76 19.7126 164.931 11.5809 160.483 4.22163C157.152 -1.28174 151.598 -1.49093 148.155 4.10362C144.452 10.1219 146.011 16.6122 146.836 22.8826C148.214 33.3423 150.374 43.6302 148.341 54.3419C146.628 63.3479 144.303 72.1286 141.212 80.7055C137.238 91.7283 131.944 102.199 127.102 112.841C125.065 117.32 123.378 121.868 122 126.481C120.622 121.868 118.935 117.32 116.898 112.841C112.056 102.199 106.762 91.7283 102.788 80.7055C99.6968 72.1286 97.3717 63.3479 95.6586 54.3419C93.6262 43.6249 95.7862 33.3423 97.1642 22.8826C97.9889 16.6176 99.5478 10.1219 95.8448 4.10362C92.4025 -1.49093 86.8479 -1.28174 83.5173 4.22163C79.0695 11.5755 79.2397 19.7126 79.3568 27.7316C79.4366 33.2886 80.6496 38.8402 81.469 44.3758C82.5065 51.3971 85.1826 57.9572 87.2842 64.6728C89.8486 72.8742 92.4078 81.081 94.222 89.4862C94.9137 92.7046 94.9563 96.0624 93.3601 99.2271C91.6842 102.553 87.7684 102.998 85.6615 99.9405C84.0015 97.5321 82.9853 94.9842 83.0012 91.8571C83.0278 85.1307 83.794 78.3615 82.2724 71.6727C80.2665 62.8437 76.8987 54.7067 70.743 47.9321C69.498 46.5643 68.4233 44.998 67.024 43.818C64.3585 41.5758 59.7137 41.1789 57.4738 42.7559C54.6753 44.7298 53.0366 50.0454 54.223 53.7948C56.4044 60.6713 60.1979 66.7325 63.869 72.8474C66.1515 76.645 68.9606 80.1852 69.7108 84.7499C69.7427 84.9537 69.8438 85.1522 69.8598 85.356C70.0886 88.2793 70.6312 91.5889 67.439 93.0961C64.4595 94.5015 61.5546 93.1819 59.2402 90.9881C54.8455 86.8204 52.0789 81.4028 48.6259 76.5163C46.5137 73.5179 43.9919 70.8949 41.1082 68.7386C37.5435 66.0728 31.4622 66.0567 28.536 68.2559C24.0722 71.6137 22.7793 75.8673 24.6361 81.7837C26.2482 86.9169 29.2862 91.2402 32.7657 95.2202C41.1029 104.757 51.6905 109.542 64.2201 110.32C69.1681 110.625 74.0523 110.829 78.9843 109.955C83.2194 109.204 86.9118 110.615 89.7795 113.951C91.4235 115.861 91.6363 117.588 89.7156 119.653C86.1297 123.509 81.3253 124.116 76.7019 124.502C59.7563 125.907 45.1304 120.227 31.8506 109.697C25.8758 104.961 19.2519 100.573 11.0265 100.579C8.55247 100.579 6.05718 100.954 4.06734 102.644C-1.21052 107.123 -1.33821 111.36 3.60447 117.067H3.65767Z" fill="#000"/>
</svg>
