<svg width="187" height="296" viewBox="0 0 187 296" fill="none" xmlns="http://www.w3.org/2000/svg">
<path d="M99.4445 131.07C110.264 128.956 125.678 138.156 107.516 175.257C107.516 175.257 97.0915 200.218 108.523 199.203C119.954 198.193 138.99 191.944 135.091 135.115C132.482 97.1216 94.3936 40.2761 110.264 35.7292C130.757 29.8544 151.117 120.587 153.587 135.456C168.756 226.73 94.388 226.01 103.917 248.555C115.254 275.385 177.824 234.457 170.57 140.778C165.941 80.998 126.157 21.0617 136.097 13.0166C186.234 -27.5546 237.373 296 89.02 296C-59.3326 296 13.3668 -22.048 54.3808 1.21683C73.5389 12.0849 22.3006 72.1161 16.4096 143.054C13.6227 176.574 48.8014 282.805 67.8371 254.179C84.8813 228.543 2.80874 196.257 53.0402 110.829C74.6515 74.0799 58.4194 24.6212 78.2617 37.9776C113.446 61.6497 10.9693 188.53 83.6408 200.553C83.6408 200.553 99.1108 202.896 90.7055 173.394C90.7055 173.394 76.5873 135.539 99.4501 131.076L99.4445 131.07Z" fill="#dcc5ff"/>
</svg>
