<svg width="197" height="288" viewBox="0 0 197 288" fill="none" xmlns="http://www.w3.org/2000/svg">
<path d="M75.8813 92.7776C69.372 89.2483 54.4867 105.084 45.4181 124.76C39.3038 138.019 15.5771 191.621 4.00871 184.808C-11.1038 175.905 20.6093 134.829 31.4202 121.428C44.0329 105.79 73.3219 71.1475 64.5293 47.9853C60.6713 37.8132 30.7979 18.5633 47.5121 4.48435C68.4413 -13.1513 76.9526 26.4209 82.7423 33.7586C91.4646 44.8117 105.154 46.5024 141.098 33.6437C141.098 33.6437 192.853 15.822 196.673 27.7177C200.494 39.6134 170.063 44.3411 143.577 45.5887C125.959 46.4204 100.154 51.3669 99.3699 65.7359C98.2065 87.1362 124.433 119.135 120.808 160.223C117.188 201.311 99.6296 257.846 99.6296 257.846C99.6296 257.846 89.5221 285.648 74.3771 282.579C63.182 280.308 78.3973 261.085 84.1112 249.376C100.062 216.698 102.362 190.564 103.552 166.609C105.354 130.199 96.5778 131.808 91.9894 135.441C88.3371 138.336 61.4613 176.25 39.8395 245.146C37.5453 252.462 33.0597 290.704 20.9231 287.848C11.097 285.533 17.3303 249.436 22.2974 236.517C27.9356 221.863 38.6653 210.104 52.3765 181.459C64.9459 155.195 88.2613 99.4697 75.8813 92.7612V92.7776Z" fill="#48FFDC"/>
</svg>
