<svg width="194" height="284" viewBox="0 0 194 284" fill="none" xmlns="http://www.w3.org/2000/svg">
<path d="M110.915 0.297881C101.961 -1.44722 85.9365 3.86913 93.4198 32.5309C100.361 59.1127 68.49 69.8966 52.5572 76.877C-1.49491 100.563 25.7164 154.223 33.2264 156.379C51.2635 161.56 31.5999 131.278 41.8961 109.445C54.0603 83.6467 74.9908 72.8087 79.0545 83.5333C84.6589 98.3369 57.5497 126.729 69.4777 174.949C91.906 265.618 -11.6032 238.626 1.0818 265.986C7.1371 279.049 72.5376 263.268 86.3875 240.819C108.08 205.663 68.0014 163.473 96.6836 149.042C117.045 138.793 162.873 192.34 165.08 217.506C168.198 253.105 107.377 271.107 118.038 281.124C133.826 295.96 198.405 250.831 193.762 204.55C190.085 167.914 93.7472 139.414 107.35 91.6753C112.584 73.3112 143.752 142.008 174.377 126.534C190.385 118.446 191.147 53.2344 175.268 62.0734C167.291 66.5145 179.058 91.6807 166.373 101.168C153.592 110.731 109.927 85.3864 116.852 38.4956C119.23 22.3791 129.306 3.87453 110.92 0.297881H110.915Z" fill="#009F67"/>
</svg>
