<svg width="180" height="231" viewBox="0 0 180 231" fill="none" xmlns="http://www.w3.org/2000/svg">
<path d="M81.4836 202.529C70.8747 198.92 20.5572 168.709 19.5376 105.548C18.5065 41.8839 8.64234 22.717 30.9369 24.9511C47.8584 26.6466 35.3363 64.0182 39.2086 111.3C43.9517 169.179 80.5098 201.876 81.4836 202.529Z" fill="#fff"/>
<path d="M81.4859 202.529C79.6414 201.934 48.6512 146.461 53.6234 83.4951C58.355 23.4967 84.4188 -5.29381 98.4074 0.801114C112.396 6.89604 78.8509 60.5589 72.9049 84.8584C57.5645 147.583 81.4745 202.529 81.4745 202.529H81.4859Z" fill="#fff"/>
<path d="M81.4829 202.53C80.5205 202.255 74.5974 130.204 95.9297 85.1913C110.102 55.2666 114.994 -2.92162 138.915 6.32387C161.714 15.1455 117.422 63.5268 109.804 87.2191C106.836 96.4417 102.632 115.609 99.7677 136.414C95.1965 169.581 84.0263 197.902 81.4943 202.53H81.4829Z" fill="#fff"/>
<path d="M81.4883 202.53C88.1675 191.611 100.369 169.924 111.505 151.868C143.663 99.7407 132.115 40.1204 170.403 42.2055C189.02 43.2252 157.205 75.3725 154.49 97.7129C151.786 120.053 131.084 165.628 81.4883 202.53Z" fill="#fff"/>
<path d="M81.4883 202.53C91.9826 196.778 165.66 149.841 178.182 165.41C190.704 180.98 121.208 204.111 81.4883 202.53Z" fill="#fff"/>
<path d="M81.4853 202.529C72.4231 200.18 1.94197 166.429 0.0287164 184.187C-1.2086 195.689 37.721 213.252 81.4968 202.529H81.4853Z" fill="#fff"/>
<path d="M81.4882 202.529C69.8597 205.634 48.8826 217.87 52.2623 228.032C55.642 238.194 74.4194 217.354 81.4882 202.529Z" fill="#fff"/>
<path d="M81.4883 202.529C84.0087 210.503 90.4474 217.595 97.0006 223.529C107.392 232.947 119.547 207.41 81.4883 202.529Z" fill="#fff"/>
<path d="M81.4843 202.529C76.8558 211.901 74.2666 221.811 80.3615 221.708C87.1324 221.593 85.5743 214.857 81.4843 202.529Z" fill="#fff"/>
</svg>
