<svg xmlns="http://www.w3.org/2000/svg" width="72" height="72" viewBox="0 0 72 72">
  <g id="Group_75" data-name="Group 75" transform="translate(-27 -546)">
    <g id="Group_74" data-name="Group 74" transform="translate(1 122)">
      <g id="Group_13" data-name="Group 13" transform="translate(-49 -6)">
        <circle id="Ellipse_15" data-name="Ellipse 15" cx="36" cy="36" r="36" transform="translate(75 430)" fill="#ee9747"/>
      </g>
    </g>
    <path id="Icon_awesome-info" data-name="Icon awesome-info" d="M1.406,29.829H2.813V19.671H1.406A1.406,1.406,0,0,1,0,18.265V14.906A1.406,1.406,0,0,1,1.406,13.5H9.281a1.406,1.406,0,0,1,1.406,1.406V29.829h1.406A1.406,1.406,0,0,1,13.5,31.235v3.359A1.406,1.406,0,0,1,12.094,36H1.406A1.406,1.406,0,0,1,0,34.594V31.235A1.406,1.406,0,0,1,1.406,29.829ZM6.75,0a5.063,5.063,0,1,0,5.063,5.063A5.062,5.062,0,0,0,6.75,0Z" transform="translate(56.25 564)"/>
  </g>
</svg>
