<svg xmlns="http://www.w3.org/2000/svg" width="44.409" height="44.409" viewBox="0 0 44.409 44.409">
  <path id="Icon_awesome-dribbble" data-name="Icon awesome-dribbble" d="M22.767.563a22.2,22.2,0,1,0,22.2,22.2A22.23,22.23,0,0,0,22.767.563ZM37.448,10.8a18.876,18.876,0,0,1,4.283,11.815,44.323,44.323,0,0,0-13.207-.61c-.515-1.257-1-2.363-1.667-3.726C33.87,15.417,37.048,11.343,37.448,10.8ZM35.34,8.609c-.341.486-3.2,4.323-9.94,6.851a101.238,101.238,0,0,0-7.077-11.1A18.917,18.917,0,0,1,35.34,8.609ZM14.7,5.632A121.018,121.018,0,0,1,21.736,16.6,70.744,70.744,0,0,1,4.2,18.912,19.036,19.036,0,0,1,14.7,5.632ZM3.8,22.8c0-.194,0-.387.01-.58a69.963,69.963,0,0,0,19.492-2.7c.543,1.063,1.062,2.141,1.538,3.219-6.858,1.932-13.089,7.479-16.164,12.741A18.89,18.89,0,0,1,3.8,22.8Zm7.325,14.962c1.981-4.05,7.358-9.278,15-11.886a78.837,78.837,0,0,1,4.046,14.383,18.928,18.928,0,0,1-19.05-2.5Zm22.239.76A81.86,81.86,0,0,0,29.68,25a27.838,27.838,0,0,1,11.814.811,19,19,0,0,1-8.129,12.712Z" transform="translate(-0.563 -0.563)"/>
</svg>
