<svg xmlns="http://www.w3.org/2000/svg" width="47.17" height="47.159" viewBox="0 0 47.17 47.159">
  <path id="Icon_awesome-instagram" data-name="Icon awesome-instagram" d="M23.585,13.726A12.091,12.091,0,1,0,35.676,25.817,12.072,12.072,0,0,0,23.585,13.726Zm0,19.952a7.861,7.861,0,1,1,7.861-7.861,7.875,7.875,0,0,1-7.861,7.861ZM38.991,13.232a2.82,2.82,0,1,1-2.82-2.82A2.814,2.814,0,0,1,38.991,13.232ZM47,16.094c-.179-3.778-1.042-7.124-3.809-9.881s-6.1-3.62-9.881-3.809c-3.894-.221-15.564-.221-19.457,0-3.767.179-7.114,1.042-9.881,3.8S.35,12.306.16,16.083c-.221,3.894-.221,15.564,0,19.457C.339,39.318,1.2,42.665,3.97,45.422s6.1,3.62,9.881,3.809c3.894.221,15.564.221,19.457,0,3.778-.179,7.124-1.042,9.881-3.809s3.62-6.1,3.809-9.881c.221-3.894.221-15.553,0-19.447Zm-5.03,23.624A7.958,7.958,0,0,1,37.486,44.2c-3.1,1.231-10.47.947-13.9.947s-10.807.274-13.9-.947A7.958,7.958,0,0,1,5.2,39.718c-1.231-3.1-.947-10.47-.947-13.9S3.98,15.01,5.2,11.916A7.958,7.958,0,0,1,9.684,7.433c3.1-1.231,10.47-.947,13.9-.947s10.807-.274,13.9.947a7.958,7.958,0,0,1,4.483,4.483c1.231,3.1.947,10.47.947,13.9S43.2,36.624,41.969,39.718Z" transform="translate(0.005 -2.238)"/>
</svg>
