<svg xmlns="http://www.w3.org/2000/svg" width="43.17" height="43.17" viewBox="0 0 43.17 43.17">
  <path id="Icon_awesome-linkedin" data-name="Icon awesome-linkedin" d="M40.086,2.25H3.074A3.1,3.1,0,0,0,0,5.362V42.307A3.1,3.1,0,0,0,3.074,45.42H40.086a3.105,3.105,0,0,0,3.084-3.112V5.362A3.105,3.105,0,0,0,40.086,2.25Zm-27.039,37h-6.4v-20.6h6.408v20.6Zm-3.2-23.416a3.71,3.71,0,1,1,3.71-3.71,3.711,3.711,0,0,1-3.71,3.71ZM37.031,39.253h-6.4V29.231c0-2.39-.048-5.464-3.324-5.464-3.334,0-3.845,2.6-3.845,5.29V39.253h-6.4v-20.6H23.2v2.814h.087a6.739,6.739,0,0,1,6.061-3.324c6.475,0,7.68,4.269,7.68,9.819Z" transform="translate(0 -2.25)"/>
</svg>
