<svg width="430" height="436" viewBox="0 0 430 436" fill="none" xmlns="http://www.w3.org/2000/svg">
<path d="M124.485 116.009C134.166 177.577 185.21 206.671 191.664 200.769C195.057 197.665 170.606 166.466 161.371 127.203C144.514 55.5212 189.466 -4.99389 243.932 0.326125C282.097 4.06676 212.415 39.7551 200.148 92.8444C189.466 139.117 190.523 193.842 205.878 189.962C217.756 186.97 219.731 117.782 258.341 68.378C272.472 50.3121 318.76 14.0418 356.035 50.3121C378.455 72.1186 321.764 78.3253 281.847 105.092C250.886 125.817 211.386 187.496 223.959 189.852C233.278 193.897 250.775 154.911 306.938 132.218C343.767 117.339 409.416 107.225 427.58 158.264C443.826 203.983 374.728 163.058 326.159 159.871C278.23 156.712 236.477 187.524 239.175 200.547C241.762 213.071 314.949 176.635 379.011 210.827C427.33 236.18 424.604 285.778 418.262 298.912C393.977 349.147 379.206 266.077 341.403 238.036C303.071 209.608 245.851 202.764 244.627 217.227C243.709 228.2 299.232 233.769 337.175 283.783C353.309 304.841 381.71 354.744 347.551 392.234C316.062 410.854 314.087 353.137 300.039 309.275C288.3 272.589 245.601 223.129 239.203 234.961C234.892 242.941 267.465 287.745 274.113 332.328C284.155 399.715 260.26 441.416 206.212 435.431C158.366 430.139 223.152 386.11 234.363 337.454C247.242 281.539 234.363 244.659 224.822 245.351C213.278 246.266 219.369 316.811 185.766 358.208C165.488 383.201 104.986 415.98 74.2756 383.81C48.5727 356.905 111.829 355.825 161.343 329.363C208.187 304.343 212.999 247.624 206.295 245.241C197.644 242.165 178.729 292.206 115.918 311.907C80.4788 323.018 0.810707 310.245 0.0040119 257.599C-0.55233 221.411 56.8622 272.755 104.374 272.617C171.357 272.423 195.308 242.359 191.997 235.044C183.764 216.895 120.508 272.339 47.6547 213.321C13.6622 185.778 -1.99876 141.971 18.8362 125.596C41.6462 107.641 64.0667 176.912 93.6919 199.383C125.097 223.212 186.573 228.505 185.989 218.447C185.099 202.93 145.209 206.698 103.706 163.113C74.0252 131.913 61.146 52.2517 100.897 30.6945C153.332 2.238 117.448 71.0934 124.513 116.036L124.485 116.009Z" fill="black"/>
</svg>
