<svg width="50" height="57" viewBox="0 0 50 57" fill="none" xmlns="http://www.w3.org/2000/svg">
<g clip-path="url(#clip0_453_1891)">
<path d="M10.1233 24.9136C10.2031 26.6886 11.6928 27.1132 15.4442 26.9006C19.8004 26.6545 21.2438 26.2912 20.9512 24.1181C20.6586 21.9449 16.854 22.2636 14.9388 22.396C11.879 22.608 10.0477 23.2271 10.1233 24.9136ZM12.4383 24.6751C12.4383 24.4367 12.7575 24.3042 15.1789 24.2248C17.6002 24.1453 18.744 24.2777 18.744 24.4632C18.744 24.6487 18.5844 24.8341 16.1365 24.9666C13.6885 25.099 12.4383 24.9931 12.4383 24.6751Z" fill="#FF0000"/>
<path d="M46.4696 31.6348C44.5201 31.6348 42.9395 33.209 42.9395 35.1507C42.9395 37.0924 44.5201 38.6667 46.4696 38.6667C48.4192 38.6667 49.9998 37.0924 49.9998 35.1507C49.9998 33.209 48.4192 31.6348 46.4696 31.6348ZM46.4696 36.9209C45.4875 36.9209 44.6916 36.1282 44.6916 35.15C44.6916 34.1719 45.4875 33.3791 46.4696 33.3791C47.4518 33.3791 48.2477 34.1719 48.2477 35.15C48.2477 36.1282 47.4518 36.9209 46.4696 36.9209Z" fill="#FF0000"/>
<path d="M3.53018 31.6348C1.58063 31.6348 0 33.209 0 35.1507C0 37.0924 1.58063 38.6667 3.53018 38.6667C5.47972 38.6667 7.06035 37.0924 7.06035 35.1507C7.06035 33.209 5.47972 31.6348 3.53018 31.6348ZM3.53018 36.9209C2.54806 36.9209 1.75214 36.1282 1.75214 35.15C1.75214 34.1719 2.54806 33.3791 3.53018 33.3791C4.5123 33.3791 5.30822 34.1719 5.30822 35.15C5.30822 36.1282 4.5123 36.9209 3.53018 36.9209Z" fill="#FF0000"/>
<path d="M42.7778 15.2069C41.641 11.7683 38.1591 8.9872 33.6251 8.7885C33.6251 8.81708 33.6265 8.84567 33.6265 8.87425C33.6265 9.63489 33.5243 10.3711 33.3332 11.0718C36.995 11.502 39.7727 13.9045 40.7191 16.8334C42.4467 22.183 41.2497 31.4103 40.9074 34.4208C40.5616 37.4641 39.6306 47.4646 34.8124 51.3034C30.8489 54.4617 26.3261 54.2825 24.9961 54.2825H24.9891C23.659 54.2825 19.1362 54.4617 15.1727 51.3034C10.3545 47.4646 9.42352 37.4641 9.07771 34.4208C8.7361 31.4103 7.53837 22.183 9.26601 16.8334C10.2509 13.7839 13.2225 11.3061 17.109 11.0293C16.9256 10.3418 16.8269 9.61955 16.8269 8.87425C16.8269 8.84218 16.8276 8.80941 16.8283 8.77734C12.0661 8.79826 8.38259 11.6505 7.20657 15.2069C5.25562 21.1072 6.60805 31.2835 6.99376 34.6035C7.38367 37.9598 7.78898 48.2455 13.8756 53.2228C17.6893 56.3406 22.0448 56.5086 24.9891 56.5086H24.9961C27.9403 56.5086 32.2965 56.3406 36.1095 53.2228C42.1961 48.2462 42.6014 37.9598 42.9914 34.6035C43.3771 31.2835 44.7295 21.1072 42.7785 15.2069H42.7778Z" fill="#FF0000"/>
<path d="M33.6251 8.78838C33.5789 4.20712 29.8367 0.507812 25.2264 0.507812C20.6161 0.507812 16.8801 4.20155 16.8276 8.77723C16.8276 8.8093 16.8262 8.84137 16.8262 8.87414C16.8262 9.61944 16.9242 10.3417 17.1083 11.0292C18.0631 14.6051 21.335 17.2405 25.2264 17.2405C29.1177 17.2405 32.3637 14.626 33.3325 11.0717C33.5236 10.3717 33.6258 9.63478 33.6258 8.87414C33.6258 8.84555 33.6251 8.81697 33.6244 8.78838H33.6251ZM25.2264 14.7529C22.7203 14.7529 20.5804 13.1967 19.7235 11.002C19.4659 10.3417 19.3231 9.62432 19.3231 8.87344C19.3231 8.84067 19.3252 8.8086 19.3259 8.77583C19.3784 5.57362 21.9993 2.99401 25.2264 2.99401C28.4534 2.99401 31.0743 5.57432 31.1268 8.77583C31.1268 8.8086 31.1296 8.84067 31.1296 8.87344C31.1296 9.62432 30.9868 10.3417 30.7292 11.002C29.8731 13.1967 27.7331 14.7529 25.2264 14.7529Z" fill="#FF0000"/>
<path d="M25.1817 38.9565C26.0329 38.9565 26.9905 38.9921 27.2748 38.3911C27.5583 37.7908 27.3812 36.7659 27.6297 30.9011C27.8782 25.0363 27.7718 22.6338 29.0843 21.5385C30.5368 20.3268 35.8954 20.7967 39.1232 21.0087C39.7973 21.0087 40.2229 19.3131 39.2653 19.136C38.3077 18.9596 29.3685 17.7583 27.6304 19.6303C25.8922 21.503 25.6087 22.5271 25.573 30.7596C25.5555 34.7531 25.7858 36.5889 25.0767 36.5889H25.0676C24.3585 36.5889 24.5881 34.7531 24.5713 30.7596C24.5356 22.5278 24.2521 21.503 22.5139 19.6303C20.7758 17.7576 11.8366 18.9589 10.879 19.136C9.92137 19.3124 10.347 21.0087 11.0211 21.0087C14.2489 20.7967 19.6075 20.3268 21.06 21.5385C22.3725 22.6338 22.2661 25.0363 22.5146 30.9011C22.7632 36.7659 22.5853 37.7908 22.8696 38.3911C23.1531 38.9914 24.1114 38.9565 24.9626 38.9565" fill="#FF0000"/>
<path d="M35.0077 22.3959C33.0925 22.2634 29.2879 21.9455 28.9953 24.118C28.7027 26.2911 30.1461 26.6543 34.5023 26.9005C38.2537 27.1124 39.7433 26.6885 39.8231 24.9134C39.8987 23.2276 38.0675 22.6078 35.0077 22.3959ZM33.8107 24.9664C31.3627 24.834 31.2031 24.6485 31.2031 24.4631C31.2031 24.2776 32.347 24.1451 34.7683 24.2246C37.1897 24.3041 37.5089 24.4366 37.5089 24.675C37.5089 24.9929 36.2587 25.0989 33.8107 24.9664Z" fill="#FF0000"/>
<path d="M37.4844 41.2266H12.9978C12.9075 41.2266 12.8368 41.3046 12.8466 41.3939C12.9306 42.1699 13.3674 45.4662 14.8872 47.5857C16.3061 49.5643 18.789 51.9668 25.2362 51.9668H25.2453C31.6924 51.9668 34.1754 49.5643 35.5943 47.5857C37.1147 45.4662 37.5509 42.1692 37.6349 41.3939C37.6447 41.3039 37.574 41.2266 37.4837 41.2266H37.4844ZM19.2861 48.4683C19.2861 48.5736 19.1797 48.6475 19.0802 48.6112C16.4923 47.654 15.6516 44.6121 15.4486 43.4903C15.4318 43.3969 15.5032 43.3112 15.5984 43.3112H19.1335C19.2175 43.3112 19.2854 43.3788 19.2854 43.4625V48.4683H19.2861ZM24.0875 49.443C24.0875 49.5197 24.0245 49.5824 23.9475 49.5824H21.8264C21.7494 49.5824 21.6864 49.5197 21.6864 49.443V43.4506C21.6864 43.3739 21.7494 43.3112 21.8264 43.3112H23.9475C24.0245 43.3112 24.0875 43.3739 24.0875 43.4506V49.443ZM28.8994 49.443C28.8994 49.5197 28.8364 49.5824 28.7594 49.5824H26.6383C26.5613 49.5824 26.4983 49.5197 26.4983 49.443V43.4506C26.4983 43.3739 26.5613 43.3112 26.6383 43.3112H28.7594C28.8364 43.3112 28.8994 43.3739 28.8994 43.4506V49.443ZM35.1757 43.4903C34.9727 44.6121 34.132 47.654 31.544 48.6112C31.4446 48.6482 31.3382 48.5743 31.3382 48.4683V43.4625C31.3382 43.3788 31.4061 43.3112 31.4901 43.3112H35.0252C35.1204 43.3112 35.1918 43.3969 35.175 43.4903H35.1757Z" fill="#FF0000"/>
<path d="M25.2069 9.88596C25.7764 9.88596 26.238 9.42618 26.238 8.859C26.238 8.29182 25.7764 7.83203 25.2069 7.83203C24.6374 7.83203 24.1758 8.29182 24.1758 8.859C24.1758 9.42618 24.6374 9.88596 25.2069 9.88596Z" fill="#FF0000"/>
</g>
<defs>
<clipPath id="clip0_453_1891">
<rect width="50" height="56" fill="white" transform="translate(0 0.507812)"/>
</clipPath>
</defs>
</svg>
