<svg width="156" height="135" viewBox="0 0 156 135" fill="none" xmlns="http://www.w3.org/2000/svg">
<path d="M153.03 60.7719C152.387 60.0335 151.649 59.3745 150.95 58.6758C147.734 55.1505 143.598 53.1576 139.294 51.26C131.434 47.7982 123.121 46.9884 114.744 46.7422C110.092 46.6072 105.503 47.56 101.215 49.6323C98.4838 50.9503 95.6175 51.8634 92.5051 51.4347C90.933 51.2203 89.2498 51.0694 88.7099 49.2274C88.1144 47.1869 89.4958 45.853 90.8297 44.7255C97.6103 39.0009 105.344 37.3415 113.982 39.3185C120.231 40.7477 126.495 42.1292 132.823 43.1296C136.714 43.7489 140.644 43.5822 143.86 40.4777C145.67 38.731 146.543 36.7857 145.694 34.499C144.821 32.1568 142.859 30.807 140.358 30.3862C138.326 30.0448 136.333 30.3465 134.324 30.7594C130.926 31.4501 127.496 32.0139 124.241 33.2763C121.549 34.3164 118.802 33.1334 118.405 30.7673C118.222 29.7113 118.452 28.9571 119.54 28.3536C122.684 26.6148 126.202 26.059 129.536 24.9236C132.172 24.0264 134.459 22.8037 135.571 20.0327C136.865 16.8012 134.983 12.8234 131.617 11.8944C129.123 11.2116 126.773 11.3942 124.455 12.8075C120.826 15.0147 117.778 17.7381 115.126 21.0808C112.482 24.4155 109.401 27.4326 105.161 28.7903C103.788 29.227 102.2 29.7193 101.191 28.2663C100.254 26.9245 100.818 25.5112 101.707 24.2646C102.787 22.756 104.105 21.4539 105.534 20.3185C109.599 17.0712 113.252 13.4347 116.412 9.30602C116.968 8.5835 117.404 7.76569 117.841 6.96377C118.667 5.43932 119.072 3.93076 117.658 2.45396C116.134 0.865994 114.53 -0.269407 112.124 0.461056C104.717 2.7239 99.9923 7.64661 96.999 14.721C94.5694 20.4694 93.6088 26.5116 92.3066 32.5141C91.8461 34.634 90.671 36.357 89.1069 37.8179C87.9 38.9453 85.3752 39.3503 84.1683 38.461C82.7392 37.405 82.5962 35.8568 82.9773 34.2132C92.6877 8.29766 62.8737 10.5049 72.5206 34.2132C72.9017 35.8568 72.7588 37.405 71.3296 38.461C70.1227 39.3503 67.5979 38.9453 66.3911 37.8179C64.8269 36.357 63.6518 34.642 63.1913 32.5141C61.8892 26.5195 60.9284 20.4694 58.4988 14.721C55.5055 7.65455 50.7893 2.7239 43.3735 0.461056C40.9678 -0.277347 39.3639 0.865994 37.8394 2.45396C36.4261 3.92282 36.8311 5.43138 37.6568 6.96377C38.0935 7.76569 38.5302 8.5835 39.086 9.30602C42.2461 13.4347 45.8983 17.0712 49.9635 20.3185C51.3848 21.4539 52.7108 22.756 53.7906 24.2646C54.6798 25.5112 55.2435 26.9245 54.3066 28.2663C53.2903 29.7193 51.7023 29.227 50.3367 28.7903C46.0968 27.4326 43.0162 24.4155 40.3643 21.0808C37.7124 17.7381 34.6635 15.0147 31.035 12.8075C28.7087 11.3942 26.3585 11.2116 23.8733 11.8944C20.5068 12.8234 18.6251 16.8012 19.9193 20.0327C21.0309 22.8037 23.3175 24.0264 25.9535 24.9236C29.2883 26.059 32.8056 26.6148 35.9497 28.3536C37.0296 28.9491 37.2599 29.7034 37.0852 30.7673C36.6802 33.1334 33.941 34.3164 31.2494 33.2763C27.9941 32.0139 24.564 31.4501 21.1658 30.7594C19.157 30.3544 17.1642 30.0527 15.1316 30.3862C12.6305 30.807 10.6615 32.1489 9.79604 34.499C8.94648 36.7857 9.81981 38.731 11.6301 40.4777C14.8457 43.5822 18.7839 43.741 22.6664 43.1296C28.9865 42.1292 35.259 40.7477 41.5076 39.3185C50.1461 37.3494 57.8795 39.0009 64.6601 44.7255C65.994 45.853 67.3756 47.1869 66.7801 49.2274C66.2402 51.0694 64.5569 51.2203 62.9848 51.4347C59.8724 51.8634 57.0062 50.9503 54.2749 49.6323C49.9874 47.56 45.3982 46.6072 40.7454 46.7422C32.3689 46.9884 24.0559 47.7982 16.1955 51.26C11.8921 53.1576 7.75551 55.1505 4.53988 58.6758C3.84118 59.3745 3.10278 60.0335 2.45965 60.7719C-0.684512 64.3687 -0.605118 67.0443 2.75342 69.8709C4.01585 70.9348 5.60378 71.173 7.17586 71.173C12.4082 71.173 16.6243 68.41 20.4195 65.4167C28.8675 58.7711 38.1729 55.1902 48.9552 56.0715C51.9008 56.3097 54.9577 56.6988 57.2364 59.1284C58.4592 60.4305 58.3242 61.5182 57.2762 62.7251C55.45 64.8291 53.0998 65.7184 50.4082 65.242C47.272 64.6862 44.1675 64.8212 41.0153 65.0117C33.0438 65.504 26.3029 68.5211 21.007 74.5395C18.7918 77.0564 16.8625 79.7798 15.8382 83.0192C14.6552 86.751 15.4809 89.4346 18.3154 91.5546C20.1813 92.944 24.048 92.9281 26.3187 91.2528C28.1528 89.8951 29.7567 88.2357 31.0985 86.346C33.2899 83.2574 35.0526 79.8433 37.8474 77.2152C39.3162 75.8337 41.1663 75 43.0639 75.8893C45.0965 76.8421 44.7471 78.9303 44.6042 80.7723C44.5962 80.8993 44.5327 81.0264 44.5089 81.1534C44.0246 84.0356 42.2382 86.2667 40.7931 88.6645C38.4588 92.5232 36.045 96.3502 34.6555 100.685C33.9013 103.051 34.9415 106.402 36.72 107.649C38.1491 108.649 41.1027 108.395 42.7939 106.982C43.6831 106.235 44.366 105.251 45.16 104.385C49.0743 100.114 51.2181 94.9766 52.4964 89.4029C53.465 85.1868 52.9727 80.9152 52.9569 76.6674C52.9569 74.6983 53.592 73.1024 54.6401 71.5859C56.101 69.4819 58.2527 69.6089 59.4675 71.8718C60.5632 73.9123 60.5473 76.0878 60.0947 78.168C58.9435 83.4718 57.3159 88.6486 55.6803 93.8254C54.3464 98.0652 52.6393 102.202 51.9803 106.632C51.4562 110.126 50.686 113.627 50.6384 117.137C50.5669 122.194 50.4558 127.331 53.2824 131.968C55.4023 135.446 58.9356 135.573 61.127 132.04C63.4851 128.244 62.4926 124.147 61.9685 120.193C61.0951 113.595 59.7136 107.101 61.0078 100.344C62.0956 94.659 63.5724 89.117 65.5414 83.71C68.0663 76.7547 71.4408 70.1488 74.5214 63.4317C75.2598 61.8279 75.9188 60.2082 76.5143 58.5805C76.9431 57.4134 78.5865 57.4134 79.0153 58.5805C79.6108 60.2161 80.2777 61.8279 81.0082 63.4317C84.0888 70.1488 87.4554 76.7547 89.9882 83.71C91.9572 89.125 93.434 94.659 94.5218 100.344C95.816 107.109 94.4424 113.595 93.5611 120.193C93.0371 124.147 92.0445 128.244 94.4026 132.04C96.594 135.565 100.127 135.438 102.247 131.968C105.082 127.323 104.971 122.194 104.891 117.137C104.836 113.627 104.065 110.126 103.549 106.632C102.89 102.202 101.183 98.0652 99.8494 93.8254C98.2218 88.6486 96.5861 83.4718 95.4349 78.168C94.9823 76.0878 94.9664 73.9123 96.0621 71.8718C97.2769 69.6169 99.4286 69.4819 100.89 71.5859C101.938 73.1024 102.581 74.7063 102.573 76.6674C102.557 80.9152 102.073 85.1868 103.033 89.4029C104.312 94.9766 106.455 100.106 110.37 104.385C111.164 105.251 111.846 106.235 112.736 106.982C114.427 108.395 117.389 108.649 118.81 107.649C120.588 106.402 121.628 103.051 120.874 100.685C119.485 96.3423 117.071 92.5232 114.737 88.6645C113.284 86.2667 111.497 84.0356 111.021 81.1534C110.997 81.0264 110.941 80.8993 110.925 80.7723C110.783 78.9303 110.433 76.8341 112.466 75.8893C114.363 75 116.213 75.8337 117.682 77.2152C120.477 79.8433 122.24 83.2654 124.431 86.346C125.773 88.2357 127.377 89.8951 129.211 91.2528C131.482 92.9361 135.348 92.944 137.206 91.5546C140.049 89.4346 140.866 86.751 139.683 83.0192C138.659 79.7798 136.722 77.0564 134.515 74.5395C129.211 68.5211 122.478 65.504 114.506 65.0117C111.362 64.8212 108.25 64.6862 105.114 65.242C102.422 65.7184 100.072 64.8291 98.2456 62.7251C97.1975 61.5182 97.0625 60.4305 98.2852 59.1284C100.564 56.6908 103.621 56.3097 106.567 56.0715C117.349 55.1823 126.654 58.7711 135.102 65.4167C138.905 68.41 143.121 71.173 148.346 71.173C149.918 71.173 151.506 70.9348 152.776 69.8709C156.135 67.0443 156.214 64.3687 153.07 60.7719H153.03Z" fill="#009F67"/>
</svg>
