<svg width="75" height="109" viewBox="0 0 75 109" fill="none" xmlns="http://www.w3.org/2000/svg">
<path d="M0.3273 59.7456C0.377917 63.79 4.82249 67.3717 11.2218 64.4625C13.6924 63.3393 15.8351 61.0857 18.5322 62.2089C21.7741 63.5586 25.6064 72.0139 23.307 81.6961C21.1739 90.6816 20.9473 102.251 25.8908 102.702C30.8343 103.152 31.6201 89.2234 30.9452 81.9226C30.28 74.7207 30.8319 58.6706 37.7398 58.391C43.8596 58.1427 43.2425 77.8227 42.6809 80.9682C42.1193 84.1136 40.5478 99.7275 47.287 100.737C54.0262 101.747 49.6467 85.2368 50.3191 78.9459C50.9916 72.6551 51.3869 56.4242 58.9118 56.3133C65.0339 56.2217 65.651 77.319 64.8652 84.2823C64.0795 91.2456 64.9785 108.544 71.267 108.993C77.5578 109.441 73.1759 89.3367 72.7276 83.27C72.2793 77.2057 75.4705 59.184 64.2386 48.5136C57.4295 42.0468 60.035 29.6917 60.4833 22.3909C60.9316 15.0901 60.7653 0.657293 56.046 0.544004C51.329 0.430723 49.8684 13.9115 51.7774 23.5695C53.6863 33.23 54.6408 50.0224 49.4177 50.302C43.4137 50.625 39.5331 40.979 40.7696 27.7249C42.006 14.4707 38.0749 10.8769 35.2669 11.1011C32.4589 11.3252 30.6608 23.6804 32.683 35.9247C34.7053 48.1689 31.8973 55.019 28.1903 55.019C24.4832 55.019 19.3734 48.786 20.3833 32.6105C21.3884 16.5315 19.4288 12.6726 16.0593 12.5617C12.6897 12.4484 10.33 22.4463 12.4655 32.7792C14.5986 43.1121 16.8402 54.1609 10.4433 53.8958C3.64868 53.6138 0.269451 55.3058 0.324888 59.7432L0.3273 59.7456Z" fill="#9890AD"/>
</svg>
